<mxfile host="app.diagrams.net" agent="Mozilla/5.0 (Windows NT 10.0; Win64; x64) AppleWebKit/537.36 (KHTML, like Gecko) Chrome/138.0.0.0 Safari/537.36" version="27.2.0">
  <diagram name="Page-1" id="-iXwoYLDDtDdKmQi8xTw">
    <mxGraphModel dx="1473" dy="379" grid="1" gridSize="10" guides="1" tooltips="1" connect="1" arrows="0" fold="1" page="1" pageScale="1" pageWidth="827" pageHeight="1169" background="#ffffff" math="0" shadow="0">
      <root>
        <mxCell id="0" />
        <mxCell id="1" parent="0" />
        <mxCell id="obogICGuJaBVOjnPYi_7-20" value="&lt;span style=&quot;font-size: 18px;&quot;&gt;alamat_id&lt;/span&gt;" style="ellipse;whiteSpace=wrap;html=1;fontStyle=4" vertex="1" parent="1">
          <mxGeometry x="-250" y="280" width="120" height="40" as="geometry" />
        </mxCell>
        <mxCell id="obogICGuJaBVOjnPYi_7-21" value="&lt;span style=&quot;font-size: 18px;&quot;&gt;kota&lt;/span&gt;" style="ellipse;whiteSpace=wrap;html=1;" vertex="1" parent="1">
          <mxGeometry x="-340" y="320" width="102.5" height="40" as="geometry" />
        </mxCell>
        <mxCell id="obogICGuJaBVOjnPYi_7-22" value="&lt;span style=&quot;font-size: 18px;&quot;&gt;telepon&lt;/span&gt;" style="ellipse;whiteSpace=wrap;html=1;" vertex="1" parent="1">
          <mxGeometry x="-162.5" y="320" width="102.5" height="40" as="geometry" />
        </mxCell>
        <mxCell id="obogICGuJaBVOjnPYi_7-26" value="&lt;span style=&quot;font-size: 18px;&quot;&gt;MEMILIKI&lt;/span&gt;" style="rhombus;whiteSpace=wrap;html=1;" vertex="1" parent="1">
          <mxGeometry x="472.5" y="521.5" width="170" height="70" as="geometry" />
        </mxCell>
        <mxCell id="obogICGuJaBVOjnPYi_7-27" value="&lt;font style=&quot;font-size: 18px;&quot;&gt;order_no&lt;/font&gt;" style="ellipse;whiteSpace=wrap;html=1;shadow=0;fontStyle=4" vertex="1" parent="1">
          <mxGeometry x="473" y="260" width="118" height="45" as="geometry" />
        </mxCell>
        <mxCell id="obogICGuJaBVOjnPYi_7-28" value="&lt;span style=&quot;font-size: 18px;&quot;&gt;jumlah_order&lt;/span&gt;" style="ellipse;whiteSpace=wrap;html=1;" vertex="1" parent="1">
          <mxGeometry x="542" y="305" width="143" height="40" as="geometry" />
        </mxCell>
        <mxCell id="obogICGuJaBVOjnPYi_7-30" value="&lt;font style=&quot;font-size: 18px;&quot;&gt;tanggal_order&lt;/font&gt;" style="ellipse;whiteSpace=wrap;html=1;" vertex="1" parent="1">
          <mxGeometry x="382" y="305" width="125.5" height="40" as="geometry" />
        </mxCell>
        <mxCell id="obogICGuJaBVOjnPYi_7-33" value="&lt;span style=&quot;font-size: 18px;&quot;&gt;MEMBUAT&lt;/span&gt;" style="rhombus;whiteSpace=wrap;html=1;" vertex="1" parent="1">
          <mxGeometry x="300" y="400" width="160" height="60" as="geometry" />
        </mxCell>
        <mxCell id="obogICGuJaBVOjnPYi_7-35" value="&lt;span style=&quot;font-size: 18px;&quot;&gt;keranjang_id&lt;/span&gt;" style="ellipse;whiteSpace=wrap;html=1;shadow=0;fontStyle=4" vertex="1" parent="1">
          <mxGeometry x="1030" y="573.75" width="130" height="37.5" as="geometry" />
        </mxCell>
        <mxCell id="obogICGuJaBVOjnPYi_7-36" value="&lt;font style=&quot;font-size: 18px;&quot;&gt;user_id&lt;/font&gt;" style="ellipse;whiteSpace=wrap;html=1;" vertex="1" parent="1">
          <mxGeometry x="890" y="572.5" width="107" height="40" as="geometry" />
        </mxCell>
        <mxCell id="obogICGuJaBVOjnPYi_7-37" value="&lt;span style=&quot;font-size: 18px;&quot;&gt;pembayaran_id&lt;/span&gt;" style="ellipse;whiteSpace=wrap;html=1;shadow=0;fontStyle=4" vertex="1" parent="1">
          <mxGeometry x="877" y="187.5" width="156" height="50" as="geometry" />
        </mxCell>
        <mxCell id="obogICGuJaBVOjnPYi_7-38" value="&lt;span style=&quot;font-size: 18px;&quot;&gt;nominal&lt;/span&gt;" style="ellipse;whiteSpace=wrap;html=1;shadow=0;" vertex="1" parent="1">
          <mxGeometry x="827" y="247.5" width="100" height="45" as="geometry" />
        </mxCell>
        <mxCell id="obogICGuJaBVOjnPYi_7-39" value="&lt;span style=&quot;font-size: 18px;&quot;&gt;metode&lt;/span&gt;" style="ellipse;whiteSpace=wrap;html=1;shadow=0;" vertex="1" parent="1">
          <mxGeometry x="977" y="247.5" width="110" height="40" as="geometry" />
        </mxCell>
        <mxCell id="obogICGuJaBVOjnPYi_7-41" value="&lt;font style=&quot;font-size: 18px;&quot;&gt;USER&lt;/font&gt;" style="rounded=1;arcSize=10;whiteSpace=wrap;html=1;align=center;" vertex="1" parent="1">
          <mxGeometry x="155" y="410" width="100" height="40" as="geometry" />
        </mxCell>
        <mxCell id="obogICGuJaBVOjnPYi_7-45" value="&lt;font style=&quot;font-size: 18px;&quot;&gt;name&lt;/font&gt;" style="ellipse;whiteSpace=wrap;html=1;align=center;" vertex="1" parent="1">
          <mxGeometry x="210" y="325" width="100" height="40" as="geometry" />
        </mxCell>
        <mxCell id="obogICGuJaBVOjnPYi_7-46" value="&lt;span style=&quot;font-size: 18px;&quot;&gt;email&lt;/span&gt;" style="ellipse;whiteSpace=wrap;html=1;align=center;" vertex="1" parent="1">
          <mxGeometry x="90" y="320" width="100" height="40" as="geometry" />
        </mxCell>
        <mxCell id="obogICGuJaBVOjnPYi_7-47" value="&lt;span style=&quot;font-size: 18px;&quot;&gt;&lt;u&gt;user_id&lt;/u&gt;&lt;/span&gt;" style="ellipse;whiteSpace=wrap;html=1;align=center;" vertex="1" parent="1">
          <mxGeometry x="150" y="280" width="100" height="40" as="geometry" />
        </mxCell>
        <mxCell id="obogICGuJaBVOjnPYi_7-49" value="&lt;span style=&quot;font-size: 18px;&quot;&gt;ALAMAT&lt;/span&gt;" style="rounded=1;arcSize=10;whiteSpace=wrap;html=1;align=center;" vertex="1" parent="1">
          <mxGeometry x="-220" y="410" width="100" height="40" as="geometry" />
        </mxCell>
        <mxCell id="obogICGuJaBVOjnPYi_7-50" value="&lt;font style=&quot;font-size: 18px;&quot;&gt;ORDER&lt;/font&gt;" style="rounded=1;arcSize=10;whiteSpace=wrap;html=1;align=center;" vertex="1" parent="1">
          <mxGeometry x="507.5" y="410" width="100" height="40" as="geometry" />
        </mxCell>
        <mxCell id="obogICGuJaBVOjnPYi_7-51" value="&lt;span style=&quot;font-size: 18px;&quot;&gt;PEMBAYARAN&lt;/span&gt;" style="rounded=1;arcSize=10;whiteSpace=wrap;html=1;align=center;" vertex="1" parent="1">
          <mxGeometry x="877" y="337.5" width="171" height="40" as="geometry" />
        </mxCell>
        <mxCell id="obogICGuJaBVOjnPYi_7-52" value="&lt;font style=&quot;font-size: 18px;&quot;&gt;KERANJANG&lt;/font&gt;" style="rounded=1;arcSize=10;whiteSpace=wrap;html=1;align=center;" vertex="1" parent="1">
          <mxGeometry x="880" y="470" width="175" height="40" as="geometry" />
        </mxCell>
        <mxCell id="obogICGuJaBVOjnPYi_7-55" value="&lt;span style=&quot;font-size: 18px;&quot;&gt;MEMILIKI&lt;/span&gt;" style="rhombus;whiteSpace=wrap;html=1;" vertex="1" parent="1">
          <mxGeometry x="660" y="401.25" width="150" height="58.75" as="geometry" />
        </mxCell>
        <mxCell id="obogICGuJaBVOjnPYi_7-56" value="&lt;span style=&quot;font-size: 18px;&quot;&gt;BARANG&lt;/span&gt;" style="rounded=1;arcSize=10;whiteSpace=wrap;html=1;align=center;" vertex="1" parent="1">
          <mxGeometry x="1361" y="536.5" width="120" height="40" as="geometry" />
        </mxCell>
        <mxCell id="obogICGuJaBVOjnPYi_7-57" value="&lt;span style=&quot;font-size: 18px;&quot;&gt;nama_barang&lt;/span&gt;" style="ellipse;whiteSpace=wrap;html=1;shadow=0;fontStyle=0" vertex="1" parent="1">
          <mxGeometry x="1353.25" y="610" width="135.5" height="50" as="geometry" />
        </mxCell>
        <mxCell id="obogICGuJaBVOjnPYi_7-58" value="&lt;span style=&quot;font-size: 18px;&quot;&gt;kodebarang_id&lt;/span&gt;" style="ellipse;whiteSpace=wrap;html=1;shadow=0;fontStyle=4" vertex="1" parent="1">
          <mxGeometry x="1488.75" y="597" width="146.5" height="50" as="geometry" />
        </mxCell>
        <mxCell id="obogICGuJaBVOjnPYi_7-59" value="&lt;span style=&quot;font-size: 18px;&quot;&gt;harga&lt;/span&gt;" style="ellipse;whiteSpace=wrap;html=1;shadow=0;fontStyle=0" vertex="1" parent="1">
          <mxGeometry x="1240" y="601.5" width="92.5" height="41" as="geometry" />
        </mxCell>
        <mxCell id="obogICGuJaBVOjnPYi_7-66" value="&lt;span style=&quot;font-size: 18px;&quot;&gt;JENIS BARANG&lt;/span&gt;" style="rounded=1;arcSize=10;whiteSpace=wrap;html=1;align=center;" vertex="1" parent="1">
          <mxGeometry x="1701" y="588" width="187.5" height="40" as="geometry" />
        </mxCell>
        <mxCell id="obogICGuJaBVOjnPYi_7-68" value="&lt;span style=&quot;font-size: 18px;&quot;&gt;jenis_barang&lt;/span&gt;" style="ellipse;whiteSpace=wrap;html=1;shadow=0;fontStyle=0" vertex="1" parent="1">
          <mxGeometry x="2043.5" y="581.5" width="135" height="50" as="geometry" />
        </mxCell>
        <mxCell id="obogICGuJaBVOjnPYi_7-69" value="&lt;span style=&quot;font-size: 18px;&quot;&gt;MEMILIKI&lt;/span&gt;" style="rhombus;whiteSpace=wrap;html=1;" vertex="1" parent="1">
          <mxGeometry x="-60" y="401.25" width="160" height="57.5" as="geometry" />
        </mxCell>
        <mxCell id="obogICGuJaBVOjnPYi_7-71" value="&lt;span style=&quot;font-size: 18px;&quot;&gt;TRACKING&lt;/span&gt;" style="rounded=1;arcSize=10;whiteSpace=wrap;html=1;align=center;" vertex="1" parent="1">
          <mxGeometry x="492.5" y="660" width="130" height="40" as="geometry" />
        </mxCell>
        <mxCell id="obogICGuJaBVOjnPYi_7-72" value="&lt;span style=&quot;font-size: 18px;&quot;&gt;tracking_id&lt;/span&gt;" style="ellipse;whiteSpace=wrap;html=1;fontStyle=4" vertex="1" parent="1">
          <mxGeometry x="430" y="740" width="120" height="47.5" as="geometry" />
        </mxCell>
        <mxCell id="obogICGuJaBVOjnPYi_7-73" value="&lt;font style=&quot;font-size: 18px;&quot;&gt;order_no&lt;/font&gt;" style="ellipse;whiteSpace=wrap;html=1;shadow=0;fontStyle=0" vertex="1" parent="1">
          <mxGeometry x="520" y="787.5" width="96" height="37.5" as="geometry" />
        </mxCell>
        <mxCell id="obogICGuJaBVOjnPYi_7-74" value="&lt;font style=&quot;font-size: 18px;&quot;&gt;status&lt;/font&gt;" style="ellipse;whiteSpace=wrap;html=1;shadow=0;fontStyle=0" vertex="1" parent="1">
          <mxGeometry x="580" y="745" width="96" height="37.5" as="geometry" />
        </mxCell>
        <mxCell id="obogICGuJaBVOjnPYi_7-77" value="" style="endArrow=none;html=1;rounded=0;entryX=0.5;entryY=0;entryDx=0;entryDy=0;exitX=0.5;exitY=1;exitDx=0;exitDy=0;" edge="1" parent="1" source="obogICGuJaBVOjnPYi_7-47" target="obogICGuJaBVOjnPYi_7-41">
          <mxGeometry relative="1" as="geometry">
            <mxPoint x="-30" y="460" as="sourcePoint" />
            <mxPoint x="130" y="460" as="targetPoint" />
          </mxGeometry>
        </mxCell>
        <mxCell id="obogICGuJaBVOjnPYi_7-78" value="" style="endArrow=none;html=1;rounded=0;entryX=0.5;entryY=0;entryDx=0;entryDy=0;" edge="1" parent="1" source="obogICGuJaBVOjnPYi_7-45" target="obogICGuJaBVOjnPYi_7-41">
          <mxGeometry relative="1" as="geometry">
            <mxPoint x="205" y="380" as="sourcePoint" />
            <mxPoint x="210" y="420" as="targetPoint" />
          </mxGeometry>
        </mxCell>
        <mxCell id="obogICGuJaBVOjnPYi_7-79" value="" style="endArrow=none;html=1;rounded=0;exitX=1;exitY=1;exitDx=0;exitDy=0;" edge="1" parent="1" source="obogICGuJaBVOjnPYi_7-46">
          <mxGeometry relative="1" as="geometry">
            <mxPoint x="80" y="420" as="sourcePoint" />
            <mxPoint x="200" y="410" as="targetPoint" />
          </mxGeometry>
        </mxCell>
        <mxCell id="obogICGuJaBVOjnPYi_7-80" value="" style="endArrow=none;html=1;rounded=0;entryX=0.5;entryY=0;entryDx=0;entryDy=0;exitX=0.5;exitY=1;exitDx=0;exitDy=0;" edge="1" parent="1" source="obogICGuJaBVOjnPYi_7-22" target="obogICGuJaBVOjnPYi_7-49">
          <mxGeometry relative="1" as="geometry">
            <mxPoint x="-182" y="395" as="sourcePoint" />
            <mxPoint x="-22" y="395" as="targetPoint" />
          </mxGeometry>
        </mxCell>
        <mxCell id="obogICGuJaBVOjnPYi_7-83" value="" style="endArrow=none;html=1;rounded=0;entryX=1;entryY=1;entryDx=0;entryDy=0;exitX=0.5;exitY=0;exitDx=0;exitDy=0;" edge="1" parent="1" source="obogICGuJaBVOjnPYi_7-49" target="obogICGuJaBVOjnPYi_7-21">
          <mxGeometry relative="1" as="geometry">
            <mxPoint x="-82" y="475" as="sourcePoint" />
            <mxPoint x="78" y="475" as="targetPoint" />
          </mxGeometry>
        </mxCell>
        <mxCell id="obogICGuJaBVOjnPYi_7-85" value="" style="endArrow=none;html=1;rounded=0;entryX=0.5;entryY=1;entryDx=0;entryDy=0;exitX=0.5;exitY=0;exitDx=0;exitDy=0;" edge="1" parent="1" source="obogICGuJaBVOjnPYi_7-74" target="obogICGuJaBVOjnPYi_7-71">
          <mxGeometry relative="1" as="geometry">
            <mxPoint x="575.25" y="598.75" as="sourcePoint" />
            <mxPoint x="735.25" y="598.75" as="targetPoint" />
          </mxGeometry>
        </mxCell>
        <mxCell id="obogICGuJaBVOjnPYi_7-86" value="" style="endArrow=none;html=1;rounded=0;entryX=0.5;entryY=1;entryDx=0;entryDy=0;exitX=0.5;exitY=0;exitDx=0;exitDy=0;" edge="1" parent="1" source="obogICGuJaBVOjnPYi_7-72" target="obogICGuJaBVOjnPYi_7-71">
          <mxGeometry relative="1" as="geometry">
            <mxPoint x="473.25" y="646.75" as="sourcePoint" />
            <mxPoint x="515.25" y="691.75" as="targetPoint" />
          </mxGeometry>
        </mxCell>
        <mxCell id="obogICGuJaBVOjnPYi_7-87" value="" style="endArrow=none;html=1;rounded=0;entryX=0.5;entryY=1;entryDx=0;entryDy=0;exitX=0.5;exitY=0;exitDx=0;exitDy=0;" edge="1" parent="1" source="obogICGuJaBVOjnPYi_7-73" target="obogICGuJaBVOjnPYi_7-71">
          <mxGeometry relative="1" as="geometry">
            <mxPoint x="439.25" y="689.75" as="sourcePoint" />
            <mxPoint x="515.25" y="691.75" as="targetPoint" />
          </mxGeometry>
        </mxCell>
        <mxCell id="obogICGuJaBVOjnPYi_7-89" value="" style="endArrow=none;html=1;rounded=0;exitX=0.5;exitY=1;exitDx=0;exitDy=0;entryX=0.5;entryY=0;entryDx=0;entryDy=0;" edge="1" parent="1" source="obogICGuJaBVOjnPYi_7-27" target="obogICGuJaBVOjnPYi_7-50">
          <mxGeometry relative="1" as="geometry">
            <mxPoint x="664" y="405" as="sourcePoint" />
            <mxPoint x="582" y="427.5" as="targetPoint" />
          </mxGeometry>
        </mxCell>
        <mxCell id="obogICGuJaBVOjnPYi_7-90" value="" style="endArrow=none;html=1;rounded=0;entryX=0.5;entryY=0;entryDx=0;entryDy=0;exitX=0.5;exitY=1;exitDx=0;exitDy=0;" edge="1" parent="1" source="obogICGuJaBVOjnPYi_7-28" target="obogICGuJaBVOjnPYi_7-50">
          <mxGeometry relative="1" as="geometry">
            <mxPoint x="710" y="415.5" as="sourcePoint" />
            <mxPoint x="592" y="442" as="targetPoint" />
          </mxGeometry>
        </mxCell>
        <mxCell id="obogICGuJaBVOjnPYi_7-91" value="" style="endArrow=none;html=1;rounded=0;entryX=0.5;entryY=0;entryDx=0;entryDy=0;exitX=0.5;exitY=1;exitDx=0;exitDy=0;" edge="1" parent="1" source="obogICGuJaBVOjnPYi_7-30" target="obogICGuJaBVOjnPYi_7-50">
          <mxGeometry relative="1" as="geometry">
            <mxPoint x="732" y="440.5" as="sourcePoint" />
            <mxPoint x="592" y="440.5" as="targetPoint" />
          </mxGeometry>
        </mxCell>
        <mxCell id="obogICGuJaBVOjnPYi_7-92" value="" style="endArrow=none;html=1;rounded=0;entryX=0.5;entryY=0;entryDx=0;entryDy=0;exitX=0.5;exitY=1;exitDx=0;exitDy=0;" edge="1" parent="1" source="obogICGuJaBVOjnPYi_7-52" target="obogICGuJaBVOjnPYi_7-35">
          <mxGeometry relative="1" as="geometry">
            <mxPoint x="1456" y="420" as="sourcePoint" />
            <mxPoint x="1336" y="253" as="targetPoint" />
          </mxGeometry>
        </mxCell>
        <mxCell id="obogICGuJaBVOjnPYi_7-93" value="" style="endArrow=none;html=1;rounded=0;entryX=0.5;entryY=0;entryDx=0;entryDy=0;exitX=0.5;exitY=1;exitDx=0;exitDy=0;" edge="1" parent="1" source="obogICGuJaBVOjnPYi_7-52" target="obogICGuJaBVOjnPYi_7-36">
          <mxGeometry relative="1" as="geometry">
            <mxPoint x="1548" y="460" as="sourcePoint" />
            <mxPoint x="1606" y="425" as="targetPoint" />
          </mxGeometry>
        </mxCell>
        <mxCell id="obogICGuJaBVOjnPYi_7-94" value="" style="endArrow=none;html=1;rounded=0;entryX=0.5;entryY=0;entryDx=0;entryDy=0;exitX=0.5;exitY=1;exitDx=0;exitDy=0;" edge="1" parent="1" source="obogICGuJaBVOjnPYi_7-38" target="obogICGuJaBVOjnPYi_7-51">
          <mxGeometry relative="1" as="geometry">
            <mxPoint x="855" y="413.75" as="sourcePoint" />
            <mxPoint x="923" y="383.75" as="targetPoint" />
          </mxGeometry>
        </mxCell>
        <mxCell id="obogICGuJaBVOjnPYi_7-95" value="" style="endArrow=none;html=1;rounded=0;entryX=0.5;entryY=1;entryDx=0;entryDy=0;exitX=0.5;exitY=0;exitDx=0;exitDy=0;" edge="1" parent="1" source="obogICGuJaBVOjnPYi_7-51" target="obogICGuJaBVOjnPYi_7-37">
          <mxGeometry relative="1" as="geometry">
            <mxPoint x="877" y="357.5" as="sourcePoint" />
            <mxPoint x="933" y="393.75" as="targetPoint" />
          </mxGeometry>
        </mxCell>
        <mxCell id="obogICGuJaBVOjnPYi_7-96" value="" style="endArrow=none;html=1;rounded=0;entryX=0.5;entryY=1;entryDx=0;entryDy=0;exitX=0.5;exitY=0;exitDx=0;exitDy=0;" edge="1" parent="1" source="obogICGuJaBVOjnPYi_7-51" target="obogICGuJaBVOjnPYi_7-39">
          <mxGeometry relative="1" as="geometry">
            <mxPoint x="987" y="426.5" as="sourcePoint" />
            <mxPoint x="913" y="426.5" as="targetPoint" />
          </mxGeometry>
        </mxCell>
        <mxCell id="obogICGuJaBVOjnPYi_7-97" value="" style="endArrow=none;html=1;rounded=0;exitX=0.5;exitY=1;exitDx=0;exitDy=0;entryX=0.5;entryY=0;entryDx=0;entryDy=0;" edge="1" parent="1" source="obogICGuJaBVOjnPYi_7-56" target="obogICGuJaBVOjnPYi_7-57">
          <mxGeometry relative="1" as="geometry">
            <mxPoint x="1486.5" y="546.5" as="sourcePoint" />
            <mxPoint x="1646.5" y="546.5" as="targetPoint" />
          </mxGeometry>
        </mxCell>
        <mxCell id="obogICGuJaBVOjnPYi_7-98" value="" style="endArrow=none;html=1;rounded=0;exitX=0.5;exitY=1;exitDx=0;exitDy=0;entryX=0.5;entryY=0;entryDx=0;entryDy=0;" edge="1" parent="1" source="obogICGuJaBVOjnPYi_7-56" target="obogICGuJaBVOjnPYi_7-58">
          <mxGeometry relative="1" as="geometry">
            <mxPoint x="1491.5" y="566.5" as="sourcePoint" />
            <mxPoint x="1608.5" y="538.5" as="targetPoint" />
          </mxGeometry>
        </mxCell>
        <mxCell id="obogICGuJaBVOjnPYi_7-99" value="" style="endArrow=none;html=1;rounded=0;exitX=0.5;exitY=1;exitDx=0;exitDy=0;entryX=0.5;entryY=0;entryDx=0;entryDy=0;" edge="1" parent="1" source="obogICGuJaBVOjnPYi_7-56" target="obogICGuJaBVOjnPYi_7-59">
          <mxGeometry relative="1" as="geometry">
            <mxPoint x="1491.5" y="566.5" as="sourcePoint" />
            <mxPoint x="1565.5" y="571.5" as="targetPoint" />
          </mxGeometry>
        </mxCell>
        <mxCell id="obogICGuJaBVOjnPYi_7-100" value="&lt;span style=&quot;font-size: 18px;&quot;&gt;jenis_id&lt;/span&gt;" style="ellipse;whiteSpace=wrap;html=1;shadow=0;fontStyle=4" vertex="1" parent="1">
          <mxGeometry x="2031" y="521.5" width="120" height="40" as="geometry" />
        </mxCell>
        <mxCell id="obogICGuJaBVOjnPYi_7-101" value="" style="endArrow=none;html=1;rounded=0;exitX=1;exitY=0.5;exitDx=0;exitDy=0;entryX=0;entryY=0.5;entryDx=0;entryDy=0;" edge="1" parent="1" source="obogICGuJaBVOjnPYi_7-100" target="obogICGuJaBVOjnPYi_7-66">
          <mxGeometry relative="1" as="geometry">
            <mxPoint x="101" y="1448" as="sourcePoint" />
            <mxPoint x="261" y="1448" as="targetPoint" />
          </mxGeometry>
        </mxCell>
        <mxCell id="obogICGuJaBVOjnPYi_7-102" value="" style="endArrow=none;html=1;rounded=0;exitX=1;exitY=0;exitDx=0;exitDy=0;entryX=0;entryY=0.5;entryDx=0;entryDy=0;" edge="1" parent="1" source="obogICGuJaBVOjnPYi_7-68" target="obogICGuJaBVOjnPYi_7-66">
          <mxGeometry relative="1" as="geometry">
            <mxPoint x="49" y="1478" as="sourcePoint" />
            <mxPoint x="102" y="1488" as="targetPoint" />
          </mxGeometry>
        </mxCell>
        <mxCell id="obogICGuJaBVOjnPYi_7-113" value="" style="endArrow=none;html=1;rounded=0;exitX=0.5;exitY=1;exitDx=0;exitDy=0;entryX=0.5;entryY=0;entryDx=0;entryDy=0;" edge="1" parent="1" source="obogICGuJaBVOjnPYi_7-20" target="obogICGuJaBVOjnPYi_7-49">
          <mxGeometry relative="1" as="geometry">
            <mxPoint x="-150" y="480" as="sourcePoint" />
            <mxPoint x="10" y="480" as="targetPoint" />
          </mxGeometry>
        </mxCell>
        <mxCell id="obogICGuJaBVOjnPYi_7-114" value="" style="endArrow=none;html=1;rounded=0;exitX=0;exitY=0.5;exitDx=0;exitDy=0;entryX=1;entryY=0.5;entryDx=0;entryDy=0;" edge="1" parent="1" source="obogICGuJaBVOjnPYi_7-69" target="obogICGuJaBVOjnPYi_7-49">
          <mxGeometry relative="1" as="geometry">
            <mxPoint x="40" y="410" as="sourcePoint" />
            <mxPoint x="-110" y="430" as="targetPoint" />
          </mxGeometry>
        </mxCell>
        <mxCell id="obogICGuJaBVOjnPYi_7-115" value="1" style="resizable=0;html=1;whiteSpace=wrap;align=right;verticalAlign=bottom;" connectable="0" vertex="1" parent="obogICGuJaBVOjnPYi_7-114">
          <mxGeometry x="1" relative="1" as="geometry">
            <mxPoint x="10" as="offset" />
          </mxGeometry>
        </mxCell>
        <mxCell id="obogICGuJaBVOjnPYi_7-116" value="" style="endArrow=none;html=1;rounded=0;exitX=1;exitY=0.5;exitDx=0;exitDy=0;entryX=0;entryY=0.5;entryDx=0;entryDy=0;" edge="1" parent="1" source="obogICGuJaBVOjnPYi_7-69" target="obogICGuJaBVOjnPYi_7-41">
          <mxGeometry relative="1" as="geometry">
            <mxPoint x="-50" y="440" as="sourcePoint" />
            <mxPoint x="-110" y="440" as="targetPoint" />
          </mxGeometry>
        </mxCell>
        <mxCell id="obogICGuJaBVOjnPYi_7-117" value="1" style="resizable=0;html=1;whiteSpace=wrap;align=right;verticalAlign=bottom;" connectable="0" vertex="1" parent="obogICGuJaBVOjnPYi_7-116">
          <mxGeometry x="1" relative="1" as="geometry">
            <mxPoint x="-5" as="offset" />
          </mxGeometry>
        </mxCell>
        <mxCell id="obogICGuJaBVOjnPYi_7-118" value="" style="edgeStyle=entityRelationEdgeStyle;fontSize=12;html=1;endArrow=ERoneToMany;rounded=0;entryX=0;entryY=0.5;entryDx=0;entryDy=0;exitX=1;exitY=0.5;exitDx=0;exitDy=0;" edge="1" parent="1" source="obogICGuJaBVOjnPYi_7-33" target="obogICGuJaBVOjnPYi_7-50">
          <mxGeometry width="100" height="100" relative="1" as="geometry">
            <mxPoint x="450" y="430" as="sourcePoint" />
            <mxPoint x="452" y="410" as="targetPoint" />
          </mxGeometry>
        </mxCell>
        <mxCell id="obogICGuJaBVOjnPYi_7-119" value="" style="edgeStyle=entityRelationEdgeStyle;fontSize=12;html=1;endArrow=ERoneToMany;rounded=0;exitX=0;exitY=0.5;exitDx=0;exitDy=0;entryX=1;entryY=0.5;entryDx=0;entryDy=0;" edge="1" parent="1" source="obogICGuJaBVOjnPYi_7-33" target="obogICGuJaBVOjnPYi_7-41">
          <mxGeometry width="100" height="100" relative="1" as="geometry">
            <mxPoint x="330" y="470" as="sourcePoint" />
            <mxPoint x="300" y="480" as="targetPoint" />
            <Array as="points">
              <mxPoint x="340" y="430" />
              <mxPoint x="330" y="470" />
              <mxPoint x="290" y="430" />
            </Array>
          </mxGeometry>
        </mxCell>
        <mxCell id="obogICGuJaBVOjnPYi_7-125" value="" style="endArrow=none;html=1;rounded=0;exitX=0.5;exitY=1;exitDx=0;exitDy=0;entryX=0.5;entryY=0;entryDx=0;entryDy=0;" edge="1" parent="1" source="obogICGuJaBVOjnPYi_7-26" target="obogICGuJaBVOjnPYi_7-71">
          <mxGeometry relative="1" as="geometry">
            <mxPoint x="390" y="610" as="sourcePoint" />
            <mxPoint x="550" y="610" as="targetPoint" />
          </mxGeometry>
        </mxCell>
        <mxCell id="obogICGuJaBVOjnPYi_7-126" value="1" style="resizable=0;html=1;whiteSpace=wrap;align=right;verticalAlign=bottom;" connectable="0" vertex="1" parent="obogICGuJaBVOjnPYi_7-125">
          <mxGeometry x="1" relative="1" as="geometry" />
        </mxCell>
        <mxCell id="obogICGuJaBVOjnPYi_7-127" value="" style="endArrow=none;html=1;rounded=0;exitX=0.5;exitY=0;exitDx=0;exitDy=0;entryX=0.5;entryY=1;entryDx=0;entryDy=0;" edge="1" parent="1" source="obogICGuJaBVOjnPYi_7-26" target="obogICGuJaBVOjnPYi_7-50">
          <mxGeometry relative="1" as="geometry">
            <mxPoint x="460" y="530" as="sourcePoint" />
            <mxPoint x="620" y="530" as="targetPoint" />
          </mxGeometry>
        </mxCell>
        <mxCell id="obogICGuJaBVOjnPYi_7-128" value="1" style="resizable=0;html=1;whiteSpace=wrap;align=right;verticalAlign=bottom;" connectable="0" vertex="1" parent="obogICGuJaBVOjnPYi_7-127">
          <mxGeometry x="1" relative="1" as="geometry">
            <mxPoint y="20" as="offset" />
          </mxGeometry>
        </mxCell>
        <mxCell id="obogICGuJaBVOjnPYi_7-129" value="" style="endArrow=none;html=1;rounded=0;exitX=1;exitY=0.5;exitDx=0;exitDy=0;entryX=0;entryY=0.5;entryDx=0;entryDy=0;" edge="1" parent="1" source="obogICGuJaBVOjnPYi_7-55" target="obogICGuJaBVOjnPYi_7-51">
          <mxGeometry relative="1" as="geometry">
            <mxPoint x="568" y="532" as="sourcePoint" />
            <mxPoint x="568" y="460" as="targetPoint" />
          </mxGeometry>
        </mxCell>
        <mxCell id="obogICGuJaBVOjnPYi_7-130" value="1" style="resizable=0;html=1;whiteSpace=wrap;align=right;verticalAlign=bottom;" connectable="0" vertex="1" parent="obogICGuJaBVOjnPYi_7-129">
          <mxGeometry x="1" relative="1" as="geometry">
            <mxPoint x="-7" y="8" as="offset" />
          </mxGeometry>
        </mxCell>
      </root>
    </mxGraphModel>
  </diagram>
</mxfile>
